<svg height="512" viewBox="0 0 128 128" width="512" xmlns="http://www.w3.org/2000/svg"><g id="Layer_2" data-name="Layer 2"><path d="m64 47.189 39.625-22.814-22.814 39.625 22.814 39.625-39.625-22.814-39.625 22.814 22.813-39.625-22.813-39.625z" fill="#4f67d2"/><path d="m74.59 86.91-8.84 32.84-1.75 6.5-1.75-6.5-8.84-32.84 8.84-5.09 1.75-1.01 1.75 1.01z" fill="#fee55a"/><path d="m126.25 64-6.5 1.75-32.84 8.84-5.09-8.84-1.01-1.75 1.01-1.75 5.09-8.84 32.84 8.84z" fill="#fee55a"/><path d="m74.59 41.09-8.84 5.09-1.75 1.01-1.75-1.01-8.84-5.09 8.84-32.84 1.75-6.5 1.75 6.5z" fill="#fee55a"/><path d="m47.19 64-1.01 1.75-5.09 8.84-32.84-8.84-6.5-1.75 6.5-1.75 32.84-8.84 5.09 8.84z" fill="#fee55a"/><g fill="#8affc7"><path d="m86.5 34.234a37.152 37.152 0 0 0 -15.618-6.924l3.71 13.78z"/><path d="m86.91 74.592 6.856 11.908a37.133 37.133 0 0 0 6.923-15.619z"/><path d="m86.91 53.408 13.779 3.71a37.133 37.133 0 0 0 -6.923-15.618z"/><path d="m53.408 41.09 3.71-13.78a37.147 37.147 0 0 0 -15.618 6.924z"/><path d="m74.592 86.91-3.71 13.78a37.152 37.152 0 0 0 15.618-6.924z"/><path d="m41.5 93.766a37.147 37.147 0 0 0 15.619 6.924l-3.71-13.78z"/><path d="m27.31 70.882a37.147 37.147 0 0 0 6.924 15.618l6.856-11.908z"/><path d="m27.31 57.118 13.78-3.71-6.856-11.908a37.147 37.147 0 0 0 -6.924 15.618z"/></g><path d="m126.25 64-6.5 1.75h-37.93l-1.01-1.75 1.01-1.75h37.93z" fill="#bc7c63"/><path d="m47.19 64-1.01 1.75h-37.93l-6.5-1.75 6.5-1.75h37.93z" fill="#bc7c63"/><path d="m65.75 8.25v37.93l-1.75 1.01-1.75-1.01v-37.93l1.75-6.5z" fill="#bc7c63"/><path d="m65.75 81.82v37.93l-1.75 6.5-1.75-6.5v-37.93l1.75-1.01z" fill="#bc7c63"/><path d="m127.656 65.034a1.77 1.77 0 0 0 -.951-2.723l-24.533-6.606a39.124 39.124 0 0 0 -6.329-14.305l9.3-16.151a1.765 1.765 0 0 0 -2.39-2.39l-27.062 15.579-3.119-11.583-6.882-25.555a1.765 1.765 0 0 0 -3.38 0l-6.605 24.527a39.143 39.143 0 0 0 -14.305 6.33l-16.151-9.3a1.766 1.766 0 0 0 -2.39 2.39l9.3 16.151a39.15 39.15 0 0 0 -6.329 14.306l-24.53 6.607a1.764 1.764 0 0 0 0 3.378l24.528 6.611a39.124 39.124 0 0 0 6.329 14.3l-9.3 16.151a1.766 1.766 0 0 0 2.39 2.39l16.152-9.3a39.166 39.166 0 0 0 14.305 6.33l6.605 24.532a1.765 1.765 0 0 0 3.38 0l6.611-24.53a39.166 39.166 0 0 0 14.3-6.33l16.152 9.3a1.767 1.767 0 0 0 2.39-2.39l-9.299-16.153a39.124 39.124 0 0 0 6.329-14.3l24.533-6.606a1.738 1.738 0 0 0 .951-.66zm-27.421 4.158-1.536.414-10.944 2.947-3.916-6.8h29.181zm-12.859 23.059-6.286-3.62-15.34-8.831v-11.575l27.283 27.282zm-46.75 0-5.657 3.256 27.281-27.282v11.575l-15.34 8.831zm-12.86-23.059-12.786-3.442h29.181l-3.916 6.8-10.945-2.944zm0-10.384 4.588-1.236 7.891-2.125 3.916 6.8h-29.181zm12.805-20.708-5.6-5.6 5.656 3.256 6.284 3.618 15.339 8.826v11.575l-5.179-5.175a1.75 1.75 0 0 0 -2.471 2.47l5.18 5.18h-11.58l-5.593-9.716-.02-.033-.812-1.412-9.283-16.122 5.6 5.6a1.75 1.75 0 1 0 2.479-2.467zm46.8-2.345 5.656-3.256-27.277 27.276v-11.575l15.34-8.831zm-1.146 15.334-.812 1.411-.02.033-5.593 9.717h-11.575l27.282-27.283zm-13.673-10.844-6.8 3.916v-29.18zm-10.3 3.916-6.8-3.916 6.8-25.264zm-25.113 40.8 5.47-9.5 5.591-9.711h11.575l-27.282 27.283zm18.311 2.789 6.8-3.916v29.18zm10.3-3.916 6.8 3.916-6.8 25.264zm2.475-18.084h11.575l5.593 9.716 5.47 9.5 4.644 8.067zm15.614-3.5 3.916-6.8 7.891 2.125 4.588 1.236 12.786 3.439zm14.5-7.579-3.208-.863-5.564-1.5 4.348-7.552a35.719 35.719 0 0 1 4.419 9.915zm-43.668-25.006-.258.961-2.1 7.812-7.556-4.348a35.722 35.722 0 0 1 9.914-4.425zm-20.581 15.092 4.348 7.552-5.564 1.5-3.208.863a35.706 35.706 0 0 1 4.424-9.915zm-4.424 28.572 3.208.863 5.564 1.5-4.348 7.551a35.719 35.719 0 0 1 -4.424-9.914zm15.091 20.581 7.552-4.348.333 1.236 2.029 7.536a35.735 35.735 0 0 1 -9.914-4.424zm28.572 4.424 2.029-7.534.333-1.236 7.552 4.348a35.735 35.735 0 0 1 -9.914 4.422zm20.581-15.091-4.348-7.552 5.564-1.5 3.208-.863a35.719 35.719 0 0 1 -4.424 9.915z" fill="#231f20"/><path d="m47.6 50.07a1.75 1.75 0 1 0 2.471-2.47l-2.5-2.5a1.75 1.75 0 0 0 -2.471 2.47z" fill="#231f20"/></g></svg>